<svg id="Layer_1" data-name="Layer 1" xmlns="http://www.w3.org/2000/svg" viewBox="0 0 1733.68 510.22"><defs><style>.cls-1{fill:#ffffff;}</style></defs><path class="cls-1" d="M1198.37,319.53h2.41a13.42,13.42,0,0,1,7.93,2.26c2.41,1.61,3.87,4.83,3.87,9.3s-1.46,7.68-3.87,9.29a13.42,13.42,0,0,1-7.93,2.26h-2.41Zm4.47,29.13c8.28,0,16.37-5.32,16.37-17.57s-8.09-17.58-16.37-17.58h-11v35.15Zm-45.46-26.51c1.91,2,2.87,5,2.87,8.94s-1,6.93-2.87,8.94a9.22,9.22,0,0,1-7.08,3,9.4,9.4,0,0,1-7.13-3c-1.86-2-2.81-5-2.81-8.94s1-6.93,2.81-8.94a9.41,9.41,0,0,1,7.13-3,9.23,9.23,0,0,1,7.08,3M1142.06,315c-4.87,2.47-8.33,8.24-8.33,16.08a20.17,20.17,0,0,0,2.31,10c3.16,5.58,8.18,7.94,14.26,7.94a17.84,17.84,0,0,0,8.24-1.86c4.87-2.56,8.34-8.29,8.34-16.12a20.19,20.19,0,0,0-2.37-10c-3.06-5.57-8.13-7.93-14.21-7.93a17.89,17.89,0,0,0-8.24,1.9m-42.34,7.14c1.91,2,2.87,5,2.87,8.94s-1,6.93-2.87,8.94a9.19,9.19,0,0,1-7.08,3,9.4,9.4,0,0,1-7.13-3c-1.86-2-2.81-5-2.81-8.94s1-6.93,2.81-8.94a9.41,9.41,0,0,1,7.13-3,9.2,9.2,0,0,1,7.08,3M1084.41,315c-4.88,2.47-8.34,8.24-8.34,16.08a20.17,20.17,0,0,0,2.31,10c3.16,5.58,8.19,7.94,14.26,7.94a17.81,17.81,0,0,0,8.24-1.86c4.87-2.56,8.34-8.29,8.34-16.12a20.29,20.29,0,0,0-2.36-10c-3.07-5.57-8.14-7.93-14.22-7.93a17.82,17.82,0,0,0-8.23,1.9m-53.29,33.65h6.53V333.6h12.65v-6h-12.65v-8h15.72v-6h-22.25Zm-34.91-14.31h-7.43l3.71-12.2Zm11.45,14.31-11.9-35.15h-6.53l-11.9,35.15h7l2.56-8.28h11.15l2.56,8.28Zm-74.78,0h22.25v-6H939.41v-9.7h12.2v-6h-12.2v-7.39h15.21v-6H932.88Zm-26.37-29.18a10.37,10.37,0,0,0-10.15-6.37,9.35,9.35,0,0,0-9.59,9.54c-.1,6.48,5.32,9.14,9.49,10.9,3,1.25,5.23,2.86,5.23,4.92,0,3.06-1.51,4.57-4.57,4.57-3.32,0-5.63-2.36-7-7.13l-5.27,3.31a12.28,12.28,0,0,0,4.17,7,12,12,0,0,0,7.93,2.82c6.84,0,11.26-4.12,11.26-10.95.05-6.08-5.53-8.69-9.75-10.55-2.86-1.36-5.27-3-5.27-5.22a3.18,3.18,0,0,1,3.36-3.22c2,0,3.62,1.26,4.87,3.72ZM815.6,333.7v15h6.53v-15l10.15-20.19h-7l-6.37,13.66-6.38-13.66h-7Zm-49.32-14.17v29.13h6.53V319.53h9.75v-6h-26v6Zm-41,29.13h6.53V313.51H725.3Zm-46.41,0h21.45v-6H685.42V313.51h-6.53ZM644,334.35h-7.43l3.72-12.2Zm11.46,14.31-11.91-35.15H637l-11.9,35.15h7l2.56-8.28h11.15l2.56,8.28Zm-59.22-35.15v21.9c0,5.07-2.21,7.63-6.58,7.63s-6.58-2.56-6.58-7.63v-21.9h-6.53v21.8c0,9.09,5.08,13.76,13.11,13.76s13.11-4.67,13.11-13.76v-21.8Zm-55.65,28A9.68,9.68,0,0,1,535.2,343a9.37,9.37,0,0,1-7.13-3c-1.86-2-2.82-5-2.82-8.94s1-6.93,2.82-8.94a9.38,9.38,0,0,1,7.13-3,9.23,9.23,0,0,1,7.08,3c1.91,2,2.86,5,2.86,8.94a15.89,15.89,0,0,1-.75,5.17l-3.82-3.87L536,336.91Zm11.2-10.44c0-7.84-3.46-13.61-8.34-16.08a17.82,17.82,0,0,0-8.23-1.9c-6.08,0-11.1,2.36-14.27,7.93a23,23,0,0,0,0,20.09c3.17,5.58,8.19,7.94,14.27,7.94a16.44,16.44,0,0,0,9.94-3l3.07,3,4.57-4.52-3.37-3.32a20.44,20.44,0,0,0,2.36-10.14"/><path class="cls-1" d="M1536.88,254.49h58.41V238.67H1554V213.23h32V197.41h-32V178h40V162.2h-57.09Zm-98.08,0h56.29V238.67h-39.16V162.2H1438.8Zm-88.6-51.94V178h17c8,0,12.13,4.08,12.13,12.26s-4.09,12.26-12.13,12.26Zm17.67,15.82c18.85,0,28.87-11.21,28.87-28.08s-10-28.09-28.87-28.09h-34.81v92.29h17.14V218.37Zm-101.52-33.49c5,5.27,7.52,13.05,7.52,23.47s-2.51,18.19-7.52,23.47a24.23,24.23,0,0,1-18.59,7.91,24.7,24.7,0,0,1-18.72-7.91c-4.88-5.28-7.39-13.06-7.39-23.47s2.51-18.2,7.39-23.47a24.7,24.7,0,0,1,18.72-7.91,24.23,24.23,0,0,1,18.59,7.91m-40.21-18.72c-12.79,6.46-21.89,21.62-21.89,42.19,0,10.28,2,19.12,6.07,26.37,8.3,14.63,21.49,20.83,37.44,20.83a46.54,46.54,0,0,0,21.62-4.88c12.79-6.72,21.89-21.75,21.89-42.32,0-10.29-2.11-19.12-6.2-26.37-8-14.63-21.36-20.83-37.31-20.83a46.61,46.61,0,0,0-21.62,5m-122.09,88.33h58.41V238.67h-41.27V213.23h32V197.41h-32V178h40V162.2h-57.09Zm-88.6-51.94V178h17c8,0,12.13,4.08,12.13,12.26s-4.09,12.26-12.13,12.26Zm17.67,15.82c18.85,0,28.87-11.21,28.87-28.08s-10-28.09-28.87-28.09h-34.8v92.29h17.13V218.37ZM824.56,254.49v-41.4h36.91v41.4h17.14V162.2H861.47v35.07H824.56V162.2H807.42v92.29Zm-62.63-76.6c-5.27-11.2-14.11-16.74-26.63-16.74a24.55,24.55,0,0,0-25.18,25c-.27,17,14,24,24.92,28.61,7.77,3.29,13.71,7.51,13.71,12.92,0,8-4,12-12,12-8.7,0-14.77-6.2-18.33-18.72l-13.84,8.7a32.31,32.31,0,0,0,10.94,18.45,31.44,31.44,0,0,0,20.83,7.39c17.93,0,29.54-10.81,29.54-28.74.13-16-14.51-22.81-25.58-27.69-7.52-3.56-13.84-7.91-13.84-13.71,0-4.88,3.69-8.44,8.83-8.44s9.49,3.3,12.79,9.76Zm-115.76,76.6h17.14V162.2H646.17Zm-105.2,0H558.1V214.94h33.23V199.12H558.1V178h41.27V162.2H541Zm-171.79,0h58.4V238.67H386.32V213.23h32V197.41h-32V178h39.94V162.2H369.18Zm-99.28,0v-41.4h36.92v41.4H324V162.2H306.82v35.07H269.9V162.2H252.76v92.29ZM163.64,178v76.46h17.14V178h25.58V162.2h-68.3V178Z"/></svg>